<svg xmlns="http://www.w3.org/2000/svg" width="25" height="24" viewBox="0 0 25 24" fill="none">
<g opacity="0.4">
<path d="M6.01001 4.75C5.5958 4.75 5.26001 5.08579 5.26001 5.5V7.125C5.26001 7.53921 4.92422 7.875 4.51001 7.875C4.0958 7.875 3.76001 7.53921 3.76001 7.125V5.5C3.76001 4.25736 4.76737 3.25 6.01001 3.25H7.63501C8.04922 3.25 8.38501 3.58579 8.38501 4C8.38501 4.41421 8.04922 4.75 7.63501 4.75H6.01001Z" fill="var(--icon-secondary, currentColor)" />
<path d="M10.135 4C10.135 3.58579 10.4708 3.25 10.885 3.25H14.135C14.5492 3.25 14.885 3.58579 14.885 4C14.885 4.41421 14.5492 4.75 14.135 4.75H10.885C10.4708 4.75 10.135 4.41421 10.135 4Z" fill="var(--icon-secondary, currentColor)" />
<path d="M16.635 4C16.635 3.58579 16.9708 3.25 17.385 3.25H19.01C20.2527 3.25 21.26 4.25736 21.26 5.5V7.125C21.26 7.53921 20.9242 7.875 20.51 7.875C20.0958 7.875 19.76 7.53921 19.76 7.125V5.5C19.76 5.08579 19.4242 4.75 19.01 4.75H17.385C16.9708 4.75 16.635 4.41421 16.635 4Z" fill="var(--icon-secondary, currentColor)" />
<path d="M4.51001 9.625C4.92422 9.625 5.26001 9.96079 5.26001 10.375V13.625C5.26001 14.0392 4.92422 14.375 4.51001 14.375C4.0958 14.375 3.76001 14.0392 3.76001 13.625V10.375C3.76001 9.96079 4.0958 9.625 4.51001 9.625Z" fill="var(--icon-secondary, currentColor)" />
<path d="M20.51 9.625C20.9242 9.625 21.26 9.96079 21.26 10.375V12.71L19.76 12.1639V10.375C19.76 9.96079 20.0958 9.625 20.51 9.625Z" fill="var(--icon-secondary, currentColor)" />
<path d="M10.885 20.75H13.2196L12.6735 19.25H10.885C10.4708 19.25 10.135 19.5858 10.135 20C10.135 20.4142 10.4708 20.75 10.885 20.75Z" fill="var(--icon-secondary, currentColor)" />
<path d="M4.51001 16.125C4.92422 16.125 5.26001 16.4608 5.26001 16.875V18.5C5.26001 18.9142 5.5958 19.25 6.01001 19.25H7.63501C8.04922 19.25 8.38501 19.5858 8.38501 20C8.38501 20.4142 8.04922 20.75 7.63501 20.75H6.01001C4.76737 20.75 3.76001 19.7426 3.76001 18.5V16.875C3.76001 16.4608 4.0958 16.125 4.51001 16.125Z" fill="var(--icon-secondary, currentColor)" />
</g>
<path d="M12.2279 13.6413C11.792 12.4439 12.9532 11.2828 14.1505 11.7187L21.1488 14.2664C22.4423 14.7373 22.4714 16.5562 21.1936 17.0682L18.612 18.1028L17.5775 20.6844C17.0654 21.9621 15.2466 21.933 14.7757 20.6395L12.2279 13.6413Z" fill="var(--icon-primary, currentColor)" />
</svg>