<svg xmlns="http://www.w3.org/2000/svg" width="25" height="25" viewBox="0 0 25 25" fill="none">
<path d="M7.35096 9.14065C7.13647 8.92612 6.81388 8.86192 6.53361 8.97799C6.25334 9.09406 6.07058 9.36753 6.07057 9.67089L6.07047 11.7494L3.39844 11.7494C2.98422 11.7494 2.64844 12.0852 2.64844 12.4994C2.64844 12.9136 2.98422 13.2494 3.39844 13.2494H6.07041L6.07031 15.3275C6.0703 15.6308 6.25303 15.9043 6.53328 16.0204C6.81354 16.1365 7.13614 16.0724 7.35064 15.8578L10.1788 13.0297C10.4716 12.7369 10.4717 12.262 10.1788 11.9691L7.35096 9.14065Z" fill="var(--icon-primary, currentColor)" />
<path d="M19.2268 9.67095C19.2268 9.3676 19.0441 9.09411 18.7638 8.97802C18.4836 8.86192 18.161 8.92609 17.9465 9.14059L15.1181 11.969C14.8252 12.2619 14.8252 12.7368 15.1181 13.0297L17.9462 15.8578C18.1607 16.0723 18.4833 16.1365 18.7636 16.0204C19.0438 15.9044 19.2265 15.6309 19.2266 15.3276L19.2267 13.2494L21.8984 13.2494C22.3126 13.2494 22.6484 12.9136 22.6484 12.4994C22.6484 12.0852 22.3127 11.7494 21.8984 11.7494L19.2267 11.7494L19.2268 9.67095Z" fill="var(--icon-primary, currentColor)" />
<path opacity="0.4" d="M13.3984 8.5C13.3984 8.08579 13.0627 7.75 12.6484 7.75C12.2342 7.75 11.8984 8.08579 11.8984 8.5V16.5C11.8984 16.9142 12.2342 17.25 12.6484 17.25C13.0627 17.25 13.3984 16.9142 13.3984 16.5V8.5Z" fill="var(--icon-secondary, currentColor)" />
</svg>