<svg xmlns="http://www.w3.org/2000/svg" width="24" height="25" viewBox="0 0 24 25" fill="none">
<path opacity="0.4" d="M15.875 8.375H8.75C5.36726 8.375 2.625 11.1173 2.625 14.5C2.625 17.8827 5.36726 20.625 8.75 20.625H16.6571C17.0713 20.625 17.4071 20.2892 17.4071 19.875C17.4071 19.4608 17.0713 19.125 16.6571 19.125H8.75C6.19568 19.125 4.125 17.0543 4.125 14.5C4.125 11.9457 6.19568 9.875 8.75 9.875H15.875L15.875 8.375Z" fill="var(--icon-secondary, currentColor)" />
<path d="M17.1553 4.59469C16.9408 4.38019 16.6182 4.31603 16.338 4.43211C16.0577 4.5482 15.875 4.82167 15.875 5.12502V8.37505L15.875 9.87505V13.1304C15.875 13.4338 16.0578 13.7073 16.3382 13.8234C16.6186 13.9394 16.9413 13.875 17.1557 13.6603L21.1557 9.65503C21.4482 9.36208 21.4481 8.88748 21.1553 8.59472L17.1553 4.59469Z" fill="var(--icon-primary, currentColor)" />
</svg>