<svg xmlns="http://www.w3.org/2000/svg" width="25" height="24" viewBox="0 0 25 24" fill="none">
<path d="M11.5625 8.875C11.5625 7.63236 12.5699 6.625 13.8125 6.625H14.8125C16.0551 6.625 17.0625 7.63236 17.0625 8.875L17.0625 11.25V12.75L17.0625 15.125C17.0625 16.3676 16.0551 17.375 14.8125 17.375H13.8125C12.5699 17.375 11.5625 16.3676 11.5625 15.125V12.75H3.0625C2.64829 12.75 2.3125 12.4142 2.3125 12C2.3125 11.5858 2.64829 11.25 3.0625 11.25H11.5625V8.875Z" fill="var(--icon-primary, currentColor)" />
<path opacity="0.4" d="M17.0625 12.75H21.5625C21.9767 12.75 22.3125 12.4142 22.3125 12C22.3125 11.5858 21.9767 11.25 21.5625 11.25H17.0625V12.75Z" fill="var(--icon-secondary, currentColor)" />
</svg>