<svg xmlns="http://www.w3.org/2000/svg" width="24" height="25" viewBox="0 0 24 25" fill="none">
<path d="M8.125 5.12502C8.125 4.82163 7.94222 4.54812 7.6619 4.43207C7.38159 4.31601 7.05896 4.38026 6.8445 4.59486L2.8445 8.59741C2.55184 8.89025 2.55183 9.36485 2.84448 9.65771L6.84449 13.6605C7.05894 13.8751 7.38157 13.9394 7.66189 13.8233C7.94221 13.7073 8.125 13.4338 8.125 13.1304V9.87656L8.125 8.37656V5.12502Z" fill="var(--icon-primary, currentColor)" />
<path opacity="0.4" d="M21.3758 14.5C21.3758 11.1173 18.6334 8.375 15.2507 8.375L8.12583 8.37651L8.12583 9.87651L15.251 9.875C17.8052 9.87509 19.8758 11.9457 19.8758 14.5C19.8758 17.0543 17.8052 19.125 15.2508 19.125H7.34375C6.92954 19.125 6.59375 19.4608 6.59375 19.875C6.59375 20.2892 6.92954 20.625 7.34375 20.625H15.2508C18.6336 20.625 21.3758 17.8827 21.3758 14.5Z" fill="var(--icon-secondary, currentColor)" />
</svg>