<svg xmlns="http://www.w3.org/2000/svg" width="24" height="25" viewBox="0 0 24 25" fill="none">
<path opacity="0.4" d="M10.6771 2.5C9.82481 2.5 9.04572 2.9815 8.66459 3.74377L7.78647 5.5H4C3.58579 5.5 3.25 5.83579 3.25 6.25C3.25 6.66421 3.58579 7 4 7H4.53541L5.1818 20.3587C5.23982 21.5577 6.22881 22.5 7.42917 22.5H16.5708C17.7712 22.5 18.7602 21.5577 18.8182 20.3587L19.4646 7H19.999C20.4132 7 20.749 6.66421 20.749 6.25C20.749 5.83579 20.4132 5.5 19.999 5.5H16.2135L15.3354 3.74377C14.9543 2.98151 14.1752 2.5 13.3229 2.5H10.6771ZM14.5365 5.5H9.46353L10.0062 4.41459C10.1333 4.1605 10.393 4 10.6771 4H13.3229C13.607 4 13.8667 4.1605 13.9938 4.41459L14.5365 5.5ZM9.25 16C9.25 15.5858 9.58579 15.25 10 15.25H14C14.4142 15.25 14.75 15.5858 14.75 16C14.75 16.4142 14.4142 16.75 14 16.75H10C9.58579 16.75 9.25 16.4142 9.25 16ZM8.25 12C8.25 11.5858 8.58579 11.25 9 11.25H15C15.4142 11.25 15.75 11.5858 15.75 12C15.75 12.4142 15.4142 12.75 15 12.75H9C8.58579 12.75 8.25 12.4142 8.25 12Z" fill="var(--icon-secondary, currentColor)" />
<path d="M9 11.25C8.58579 11.25 8.25 11.5858 8.25 12C8.25 12.4142 8.58579 12.75 9 12.75H15C15.4142 12.75 15.75 12.4142 15.75 12C15.75 11.5858 15.4142 11.25 15 11.25H9Z" fill="var(--icon-primary, currentColor)" />
<path d="M9.25 16C9.25 15.5858 9.58579 15.25 10 15.25H14C14.4142 15.25 14.75 15.5858 14.75 16C14.75 16.4142 14.4142 16.75 14 16.75H10C9.58579 16.75 9.25 16.4142 9.25 16Z" fill="var(--icon-primary, currentColor)" />
</svg>