<svg xmlns="http://www.w3.org/2000/svg" width="24" height="25" viewBox="0 0 24 25" fill="none">
<path opacity="0.4" d="M4.5 4.75C4.5 3.50736 5.50736 2.5 6.75 2.5H17.25C18.4926 2.5 19.5 3.50736 19.5 4.75V21.75C19.5 22.0039 19.3716 22.2405 19.1587 22.3789C18.9458 22.5172 18.6774 22.5385 18.4454 22.4354L15.375 21.0707L12.3046 22.4354C12.1107 22.5215 11.8893 22.5215 11.6954 22.4354L8.625 21.0707L5.5546 22.4354C5.3226 22.5385 5.05419 22.5172 4.84131 22.3789C4.62844 22.2405 4.5 22.0039 4.5 21.75V4.75ZM11.25 15.5C10.8358 15.5 10.5 15.8358 10.5 16.25C10.5 16.6642 10.8358 17 11.25 17H15.75C16.1642 17 16.5 16.6642 16.5 16.25C16.5 15.8358 16.1642 15.5 15.75 15.5H11.25ZM8.25 15.35C7.75294 15.35 7.35 15.7529 7.35 16.25C7.35 16.7471 7.75294 17.15 8.25 17.15C8.74706 17.15 9.1501 16.7471 9.1501 16.25C9.1501 15.7529 8.74706 15.35 8.25 15.35ZM8.25 10.85C7.75294 10.85 7.35 11.2529 7.35 11.75C7.35 12.2471 7.75304 12.65 8.2501 12.65C8.74716 12.65 9.1501 12.2471 9.1501 11.75C9.1501 11.2529 8.74706 10.85 8.25 10.85ZM11.25 11C10.8358 11 10.5 11.3358 10.5 11.75C10.5 12.1642 10.8358 12.5 11.25 12.5H15.75C16.1642 12.5 16.5 12.1642 16.5 11.75C16.5 11.3358 16.1642 11 15.75 11H11.25ZM11.25 6.5C10.8358 6.5 10.5 6.83579 10.5 7.25C10.5 7.66421 10.8358 8 11.25 8H15.75C16.1642 8 16.5 7.66421 16.5 7.25C16.5 6.83579 16.1642 6.5 15.75 6.5H11.25ZM8.25 6.35C7.75294 6.35 7.35 6.75294 7.35 7.25C7.35 7.74706 7.75294 8.15 8.25 8.15C8.74706 8.15 9.1501 7.74706 9.1501 7.25C9.1501 6.75294 8.74706 6.35 8.25 6.35Z" fill="var(--icon-secondary, currentColor)" />
<path d="M11.2501 15.4996C10.8359 15.4996 10.5001 15.8354 10.5001 16.2496C10.5001 16.6638 10.8359 16.9996 11.2501 16.9996H15.7501C16.1643 16.9996 16.5001 16.6638 16.5001 16.2496C16.5001 15.8354 16.1643 15.4996 15.7501 15.4996H11.2501Z" fill="var(--icon-primary, currentColor)" />
<path d="M7.3501 16.2496C7.3501 15.7526 7.75304 15.3496 8.2501 15.3496C8.74715 15.3496 9.1502 15.7526 9.1502 16.2496C9.1502 16.7467 8.74715 17.1496 8.2501 17.1496C7.75304 17.1496 7.3501 16.7467 7.3501 16.2496Z" fill="var(--icon-primary, currentColor)" />
<path d="M8.2501 10.8496C7.75304 10.8496 7.3501 11.2526 7.3501 11.7496C7.3501 12.2467 7.75314 12.6496 8.2502 12.6496C8.74725 12.6496 9.1502 12.2467 9.1502 11.7496C9.1502 11.2526 8.74715 10.8496 8.2501 10.8496Z" fill="var(--icon-primary, currentColor)" />
<path d="M10.5001 11.7496C10.5001 11.3354 10.8359 10.9996 11.2501 10.9996H15.7501C16.1643 10.9996 16.5001 11.3354 16.5001 11.7496C16.5001 12.1638 16.1643 12.4996 15.7501 12.4996H11.2501C10.8359 12.4996 10.5001 12.1638 10.5001 11.7496Z" fill="var(--icon-primary, currentColor)" />
<path d="M11.2501 6.49961C10.8359 6.49961 10.5001 6.8354 10.5001 7.24961C10.5001 7.66382 10.8359 7.99961 11.2501 7.99961H15.7501C16.1643 7.99961 16.5001 7.66382 16.5001 7.24961C16.5001 6.8354 16.1643 6.49961 15.7501 6.49961H11.2501Z" fill="var(--icon-primary, currentColor)" />
<path d="M7.3501 7.24961C7.3501 6.75255 7.75304 6.34961 8.2501 6.34961C8.74715 6.34961 9.1502 6.75255 9.1502 7.24961C9.1502 7.74667 8.74715 8.14961 8.2501 8.14961C7.75304 8.14961 7.3501 7.74667 7.3501 7.24961Z" fill="var(--icon-primary, currentColor)" />
</svg>