<svg xmlns="http://www.w3.org/2000/svg" width="24" height="24" viewBox="0 0 24 24" fill="none">
<path opacity="0.4" d="M6.75 7.25C6.75 4.3505 9.1005 2 12 2C14.8995 2 17.25 4.35051 17.25 7.25V9.125H18.5C19.7426 9.125 20.75 10.1324 20.75 11.375V19.7495C20.75 20.9922 19.7426 21.9995 18.5 21.9995H5.5C4.25736 21.9995 3.25 20.9922 3.25 19.7495V11.375C3.25 10.1324 4.25736 9.125 5.5 9.125H6.75V7.25ZM12 3.5C9.92893 3.5 8.25 5.17893 8.25 7.25V9.125H15.75V7.25C15.75 5.17893 14.0711 3.5 12 3.5ZM12 16C11.5858 16 11.25 16.3358 11.25 16.75V18.25C11.25 18.6642 11.5858 19 12 19C12.4142 19 12.75 18.6642 12.75 18.25V16.75C12.75 16.3358 12.4142 16 12 16Z" fill="var(--icon-secondary, currentColor)" />
<path d="M12.75 16.75C12.75 16.3358 12.4142 16 12 16C11.5858 16 11.25 16.3358 11.25 16.75V18.25C11.25 18.6642 11.5858 19 12 19C12.4142 19 12.75 18.6642 12.75 18.25V16.75Z" fill="var(--icon-primary, currentColor)" />
</svg>