<svg xmlns="http://www.w3.org/2000/svg" width="24" height="24" viewBox="0 0 24 24" fill="none">
<path opacity="0.4" d="M12 2C9.10051 2 6.75 4.35051 6.75 7.25V9.125H5.5C4.25736 9.125 3.25 10.1324 3.25 11.375V19.7495C3.25 20.9922 4.25736 21.9995 5.5 21.9995H18.5C19.7426 21.9995 20.75 20.9922 20.75 19.7495V11.375C20.75 10.1324 19.7426 9.125 18.5 9.125H8.25V7.25C8.25 5.17893 9.92893 3.5 12 3.5C13.4184 3.5 14.6541 4.28724 15.2919 5.45221C15.4909 5.81553 15.9466 5.9488 16.31 5.74987C16.6733 5.55095 16.8066 5.09516 16.6076 4.73184C15.7172 3.10553 13.9882 2 12 2ZM12 16C12.4142 16 12.75 16.3358 12.75 16.75V18.25C12.75 18.6642 12.4142 19 12 19C11.5858 19 11.25 18.6642 11.25 18.25V16.75C11.25 16.3358 11.5858 16 12 16Z" fill="var(--icon-secondary, currentColor)" />
<path d="M12.75 16.75C12.75 16.3358 12.4142 16 12 16C11.5858 16 11.25 16.3358 11.25 16.75V18.25C11.25 18.6642 11.5858 19 12 19C12.4142 19 12.75 18.6642 12.75 18.25V16.75Z" fill="var(--icon-primary, currentColor)" />
</svg>