<svg xmlns="http://www.w3.org/2000/svg" width="24" height="25" viewBox="0 0 24 25" fill="none">
<g opacity="0.4">
<path d="M10.7477 2.96516C10.6701 3.02471 10.5961 3.08957 10.5262 3.15951L5.15851 8.53055C5.08902 8.60008 5.02455 8.6737 4.96533 8.75084H10.0004C10.4148 8.75084 10.7507 8.41473 10.7504 8.0003L10.7477 2.96516Z" fill="var(--icon-secondary, currentColor)" />
<path d="M4.5 20.25V10.2508H10.0004C11.2436 10.2508 12.2512 9.24244 12.2504 7.99924L12.2474 2.5H17.25C18.4926 2.5 19.5 3.50736 19.5 4.75V12.5015C18.7085 12.222 17.7919 12.3986 17.1585 13.0316C16.9103 13.2797 16.7321 13.5713 16.624 13.882C16.5159 13.5713 16.3378 13.2797 16.0895 13.0316C15.2105 12.1532 13.7859 12.1536 12.9075 13.0326L10.4075 15.5342C9.52954 16.4127 9.52952 17.8365 10.4075 18.7151L12.9075 21.2168C13.3439 21.6536 13.9153 21.8735 14.4876 21.8764V22.5H6.75C5.50736 22.5 4.5 21.4926 4.5 20.25Z" fill="var(--icon-secondary, currentColor)" />
</g>
<path d="M15.0305 15.1532C15.3233 14.8602 15.3231 14.3853 15.0302 14.0925C14.7372 13.7997 14.2623 13.7999 13.9695 14.0929L11.4695 16.5945C11.1768 16.8873 11.1768 17.3619 11.4695 17.6548L13.9695 20.1565C14.2623 20.4495 14.7371 20.4497 15.0301 20.1569C15.3231 19.8641 15.3233 19.3892 15.0305 19.0962L13.0603 17.1247L15.0305 15.1532Z" fill="var(--icon-primary, currentColor)" />
<path d="M19.2805 14.0929C18.9877 13.7999 18.5128 13.7997 18.2198 14.0925C17.9269 14.3853 17.9267 14.8602 18.2195 15.1532L20.1897 17.1247L18.2195 19.0962C17.9267 19.3892 17.9269 19.8641 18.2199 20.1569C18.5129 20.4497 18.9877 20.4495 19.2805 20.1565L21.7805 17.6548C22.0732 17.3619 22.0732 16.8873 21.7805 16.5945L19.2805 14.0929Z" fill="var(--icon-primary, currentColor)" />
</svg>