<svg xmlns="http://www.w3.org/2000/svg" width="24" height="24" viewBox="0 0 24 24" fill="none">
<g opacity="0.4">
<path d="M7.75 4C7.75 3.58579 8.08579 3.25 8.5 3.25H15.5C15.9142 3.25 16.25 3.58579 16.25 4C16.25 4.41421 15.9142 4.75 15.5 4.75H8.5C8.08579 4.75 7.75 4.41421 7.75 4Z" fill="var(--icon-secondary, currentColor)" />
<path d="M6.25 6.25439C5.83579 6.25439 5.5 6.59018 5.5 7.00439C5.5 7.41861 5.83579 7.75439 6.25 7.75439H17.75C18.1642 7.75439 18.5 7.41861 18.5 7.00439C18.5 6.59018 18.1642 6.25439 17.75 6.25439H6.25Z" fill="var(--icon-secondary, currentColor)" />
</g>
<path d="M3.25 11.5039C3.25 10.2613 4.25736 9.25391 5.5 9.25391H18.5C19.7426 9.25391 20.75 10.2613 20.75 11.5039V18.4995C20.75 19.7422 19.7426 20.7495 18.5 20.7495H5.5C4.25736 20.7495 3.25 19.7422 3.25 18.4995V11.5039Z" fill="var(--icon-primary, currentColor)" />
</svg>