<svg xmlns="http://www.w3.org/2000/svg" width="24" height="24" viewBox="0 0 24 24" fill="none">
<path opacity="0.4" d="M14.3135 3.28125C14.0717 4.33649 13.1286 5.12402 12 5.12402C10.8352 5.12402 9.87714 6.00918 9.76172 7.14355L9.75 7.37402C9.75 8.61666 10.7574 9.62402 12 9.62402L12.2432 9.63672C13.3606 9.75038 14.2486 10.6384 14.3623 11.7559L14.375 11.999C14.375 13.1639 15.2602 14.1219 16.3945 14.2373L16.625 14.249L16.8555 14.2373C17.9898 14.1219 18.875 13.1639 18.875 11.999L18.8877 11.7559C19.0095 10.5584 20.0204 9.62402 21.25 9.62402C21.4725 9.62402 21.6867 9.58944 21.8896 9.5293C21.9606 9.94429 22 10.3705 22 10.8057C21.9999 14.7433 18.9752 17.9738 15.1221 18.3018L12.6025 21.6953C12.4611 21.8859 12.2374 21.998 12 21.998C11.7628 21.9979 11.5399 21.8858 11.3984 21.6953L8.87793 18.3018C5.02482 17.9738 2.00011 14.7433 2 10.8057C2 6.65017 5.36892 3.28125 9.52441 3.28125H14.3135Z" fill="var(--icon-secondary, currentColor)" />
<path d="M16.625 2C17.0392 2 17.375 2.33579 17.375 2.75C17.375 4.8901 19.1099 6.625 21.25 6.625C21.6642 6.625 22 6.96079 22 7.375C22 7.78921 21.6642 8.125 21.25 8.125C19.1099 8.125 17.375 9.8599 17.375 12C17.375 12.4142 17.0392 12.75 16.625 12.75C16.2108 12.75 15.875 12.4142 15.875 12C15.875 9.8599 14.1401 8.125 12 8.125C11.5858 8.125 11.25 7.78921 11.25 7.375C11.25 6.96079 11.5858 6.625 12 6.625C14.1401 6.625 15.875 4.8901 15.875 2.75C15.875 2.33579 16.2108 2 16.625 2Z" fill="var(--icon-primary, currentColor)" />
</svg>