<svg xmlns="http://www.w3.org/2000/svg" width="24" height="24" viewBox="0 0 24 24" fill="none">
<g opacity="0.4">
<path d="M12.531 13.7805C12.8238 13.4876 13.2986 13.4877 13.5915 13.7805L20.528 20.717C20.8208 21.0099 20.8209 21.4847 20.528 21.7776C20.2352 22.0702 19.7603 22.0702 19.4675 21.7776L12.531 14.841C12.2382 14.5482 12.2382 14.0733 12.531 13.7805Z" fill="var(--icon-secondary, currentColor)" />
<path d="M9.37766 3.60958C10.5691 2.72052 12.2627 3.58315 12.2439 5.06954L12.2155 7.25802C12.2145 7.35449 12.2618 7.44547 12.3405 7.50118L14.1267 8.76486C15.34 9.62325 15.0429 11.5001 13.6238 11.9416L11.5339 12.591C11.4416 12.6197 11.3692 12.6921 11.3405 12.7844L10.6911 14.8742C10.2496 16.2934 8.37278 16.5905 7.51438 15.3772L6.25071 13.591C6.195 13.5123 6.104 13.465 6.00754 13.466L3.81907 13.4943C2.33266 13.5132 1.47002 11.8195 2.3591 10.6281L3.6677 8.87423C3.72522 8.79686 3.7416 8.69603 3.71067 8.6047L3.00754 6.53243C2.53031 5.12467 3.87419 3.78079 5.28196 4.25802L7.35422 4.96115C7.44555 4.99207 7.54639 4.9757 7.62375 4.91818L9.37766 3.60958Z" fill="var(--icon-secondary, currentColor)" />
</g>
<path d="M17.9998 2C18.414 2 18.7498 2.33579 18.7498 2.75C18.7498 4.13064 19.8691 5.24988 21.2498 5.25C21.664 5.25 21.9998 5.58579 21.9998 6C21.9998 6.41421 21.664 6.75 21.2498 6.75C19.8691 6.75012 18.7498 7.86936 18.7498 9.25C18.7498 9.66421 18.414 10 17.9998 10C17.5856 9.99988 17.2498 9.66414 17.2498 9.25C17.2498 7.86929 16.1305 6.75 14.7498 6.75C14.3356 6.74988 13.9998 6.41414 13.9998 6C13.9998 5.58586 14.3356 5.25012 14.7498 5.25C16.1305 5.25 17.2498 4.13071 17.2498 2.75C17.2498 2.33586 17.5856 2.00012 17.9998 2Z" fill="var(--icon-primary, currentColor)" />
</svg>