<svg xmlns="http://www.w3.org/2000/svg" width="24" height="24" viewBox="0 0 24 24" fill="none">
<g opacity="0.4">
<path d="M12.0008 2C9.60139 2 7.65625 3.94514 7.65625 6.34459C7.65625 8.74404 9.60139 10.6892 12.0008 10.6892C14.4003 10.6892 16.3454 8.74404 16.3454 6.34459C16.3454 3.94514 14.4003 2 12.0008 2Z" fill="var(--icon-secondary, currentColor)" />
<path d="M8.93359 12.189C6.0341 12.189 3.68359 14.5395 3.68359 17.439V18.75C3.68359 19.9926 4.69095 21 5.93359 21H13.197L11.472 19.2761C10.5931 18.3977 10.5926 16.9731 11.471 16.0941C12.2626 15.302 13.4978 15.2234 14.3775 15.8585V12.189H8.93359Z" fill="var(--icon-secondary, currentColor)" />
</g>
<path d="M20.7181 17.1545C21.0109 17.4475 21.0107 17.9223 20.7177 18.2151L17.1982 21.7321C17.0606 21.8946 16.8551 21.9978 16.6256 21.9978C16.4107 21.9978 16.2169 21.9074 16.0801 21.7626L12.5304 18.2151C12.2374 17.9223 12.2372 17.4474 12.53 17.1544C12.8228 16.8615 13.2977 16.8613 13.5907 17.1541L15.8756 19.4375L15.8756 12.002C15.8756 11.5877 16.2113 11.252 16.6256 11.252C17.0398 11.252 17.3756 11.5877 17.3756 12.002L17.3756 19.4343L19.6574 17.1541C19.9504 16.8613 20.4253 16.8615 20.7181 17.1545Z" fill="var(--icon-primary, currentColor)" />
</svg>