<svg xmlns="http://www.w3.org/2000/svg" width="24" height="24" viewBox="0 0 24 24" fill="none">
<g opacity="0.4">
<path d="M12.0008 2C9.60139 2 7.65625 3.94514 7.65625 6.34459C7.65625 8.74404 9.60139 10.6892 12.0008 10.6892C14.4003 10.6892 16.3454 8.74404 16.3454 6.34459C16.3454 3.94514 14.4003 2 12.0008 2Z" fill="var(--icon-secondary, currentColor)" />
<path d="M8.93359 12.189C6.0341 12.189 3.68359 14.5395 3.68359 17.439V18.75C3.68359 19.9926 4.69095 21 5.93359 21H10.9574C10.6199 20.4371 10.4258 19.7783 10.4258 19.0741V17.0642C10.4258 15.6016 11.2623 14.3358 12.4834 13.7173C12.6118 13.1576 12.8508 12.6401 13.176 12.189H8.93359Z" fill="var(--icon-secondary, currentColor)" />
</g>
<path d="M16.6257 11.9219C15.1069 11.9219 13.8757 13.1531 13.8757 14.6719V14.834C12.7749 14.9807 11.9258 15.9233 11.9258 17.0642V19.0741C11.9258 20.3168 12.9331 21.3241 14.1758 21.3241H19.0758C20.3184 21.3241 21.3258 20.3168 21.3258 19.0741V17.0642C21.3258 15.9233 20.4766 14.9807 19.3757 14.834V14.6719C19.3757 13.1531 18.1445 11.9219 16.6257 11.9219ZM17.8757 14.6719V14.8142H15.3757V14.6719C15.3757 13.9815 15.9354 13.4219 16.6257 13.4219C17.3161 13.4219 17.8757 13.9815 17.8757 14.6719Z" fill="var(--icon-primary, currentColor)" />
</svg>